<?xml version="1.0" standalone="no"?>
<!DOCTYPE svg PUBLIC "-//W3C//DTD SVG 20010904//EN"
 "http://www.w3.org/TR/2001/REC-SVG-20010904/DTD/svg10.dtd">
<svg version="1.0" xmlns="http://www.w3.org/2000/svg"
 width="579.000000pt" height="216.000000pt" viewBox="0 0 579.000000 216.000000"
 preserveAspectRatio="xMidYMid meet">

<g transform="translate(0.000000,216.000000) scale(0.100000,-0.100000)"
fill="#000000" stroke="none">
<path d="M4850 1841 c-33 -6 -36 -9 -57 -76 -12 -38 -42 -146 -68 -240 -81
-298 -88 -316 -117 -338 -15 -11 -49 -22 -77 -25 -46 -4 -50 -3 -55 19 -29
155 -46 187 -110 218 -56 28 -99 26 -165 -4 -47 -22 -57 -24 -68 -12 -16 15
-20 -1 66 270 23 71 39 133 35 138 -3 5 -34 9 -69 9 -51 0 -66 -4 -73 -17 -9
-17 -22 -62 -128 -447 -24 -87 -50 -167 -59 -176 -24 -27 -68 -42 -111 -38
l-38 3 -11 65 c-29 172 -133 229 -283 157 -73 -36 -74 -22 -9 185 59 187 66
227 45 229 -31 3 -114 -3 -120 -10 -4 -4 -41 -126 -83 -271 -41 -146 -80 -285
-88 -310 -17 -60 -63 -92 -126 -88 l-45 3 -12 66 c-20 106 -45 144 -119 175
-46 19 -95 14 -160 -18 -76 -37 -76 -24 -12 182 31 99 57 192 57 205 0 24 -2
25 -65 25 -58 0 -66 -2 -75 -22 -13 -32 -122 -415 -164 -581 -20 -78 -49 -165
-68 -200 -44 -83 -144 -187 -181 -187 -64 0 -60 79 17 350 37 127 50 189 43
198 -11 14 -75 16 -109 3 -19 -7 -29 -26 -47 -87 -87 -293 -90 -301 -143 -372
-55 -74 -101 -112 -136 -112 -59 0 -45 113 44 363 25 70 44 133 41 141 -4 9
-39 14 -131 18 -131 6 -152 13 -158 51 -2 18 -11 23 -45 25 -63 5 -80 -9 -93
-75 -31 -156 -85 -311 -166 -480 -35 -72 -64 -135 -64 -141 0 -16 69 -64 87
-60 33 6 136 224 216 458 l33 95 58 -2 c89 -3 90 -6 45 -137 -73 -211 -72
-303 2 -370 33 -30 46 -36 84 -36 54 0 103 23 167 79 25 23 51 41 57 41 6 0
17 -13 26 -29 55 -107 204 -91 312 35 26 30 52 54 59 54 7 0 27 -20 44 -45 43
-62 97 -89 180 -89 53 -1 75 5 118 28 95 53 178 162 225 297 4 12 24 18 72 23
36 4 70 4 74 2 5 -3 11 -37 13 -76 7 -99 47 -176 108 -210 63 -34 156 -34 225
2 70 36 149 123 190 210 19 40 35 78 35 85 0 19 15 24 88 29 l69 5 6 -76 c11
-129 58 -200 149 -231 154 -51 317 72 406 307 9 23 18 27 72 33 34 4 65 4 69
1 3 -4 6 -55 6 -113 0 -127 12 -157 69 -183 79 -35 162 -5 255 93 l58 60 41
-44 c104 -110 241 -126 410 -46 60 28 172 124 172 147 0 17 -43 80 -59 86 -7
3 -38 -18 -71 -48 -72 -67 -119 -90 -196 -95 -69 -5 -113 12 -140 53 -25 39
-13 52 58 57 179 16 304 131 301 279 -1 73 -31 131 -85 166 -36 24 -52 28
-112 28 -88 -1 -150 -30 -218 -103 -61 -65 -85 -115 -108 -222 -11 -48 -25
-101 -30 -116 -16 -42 -98 -134 -136 -151 -51 -25 -64 -14 -64 58 0 76 45 253
176 698 65 222 65 223 -56 202z m461 -502 c48 -25 44 -112 -8 -161 -58 -56
-183 -89 -196 -53 -9 23 20 107 53 151 45 62 106 87 151 63z m-1021 -79 c27
-27 34 -61 27 -130 -12 -113 -72 -227 -146 -277 -43 -29 -73 -29 -108 1 -26
23 -28 29 -28 103 1 132 51 244 134 300 42 29 94 30 121 3z m-720 -45 c58 -62
20 -256 -72 -360 -63 -72 -121 -84 -163 -33 -26 31 -27 36 -22 113 6 94 34
174 78 229 64 77 135 98 179 51z m-727 -35 c73 -58 21 -288 -88 -389 -56 -52
-102 -56 -142 -13 -24 26 -25 31 -20 112 6 99 32 177 78 234 62 74 123 94 172
56z"/>
<path d="M692 1739 c-119 -20 -287 -94 -336 -148 -18 -20 -18 -21 11 -73 17
-29 37 -54 46 -56 8 -2 43 15 77 37 119 77 250 109 366 91 88 -14 144 -42 197
-99 81 -86 117 -188 117 -327 0 -315 -195 -601 -455 -669 -78 -20 -144 -20
-152 1 -7 18 57 275 153 615 38 136 64 244 60 254 -6 15 -15 17 -68 11 -35 -3
-68 -12 -75 -19 -6 -6 -61 -196 -121 -420 -60 -225 -114 -413 -120 -419 -9 -9
-28 -4 -73 15 -71 31 -75 29 -109 -43 -30 -64 -23 -77 55 -108 132 -54 343
-65 490 -27 252 65 455 276 541 562 24 78 27 105 28 243 1 145 -1 160 -27 234
-65 184 -178 289 -365 337 -79 20 -152 22 -240 8z"/>
<path d="M2262 1598 c-33 -16 -63 -71 -65 -119 -1 -34 4 -46 25 -64 23 -19 33
-22 63 -15 44 10 73 34 91 77 19 45 17 76 -7 107 -22 28 -65 34 -107 14z"/>
</g>
</svg>
